<svg width="100" height="100" xmlns="http://www.w3.org/2000/svg"><path fill="#fff" d="M25.6 74.574a4.162 4.162 0 0 0 4.15 4.15h4.15V93.25c0 3.445 2.78 6.225 6.225 6.225s6.225-2.78 6.225-6.225V78.724h8.3V93.25c0 3.445 2.78 6.225 6.225 6.225s6.225-2.78 6.225-6.225V78.724h4.15a4.162 4.162 0 0 0 4.15-4.15v-41.5H25.6v41.5zm-10.375-41.5A6.217 6.217 0 0 0 9 39.3v29.05c0 3.445 2.78 6.225 6.225 6.225s6.225-2.78 6.225-6.225V39.3a6.217 6.217 0 0 0-6.225-6.225zm70.55 0A6.217 6.217 0 0 0 79.55 39.3v29.05c0 3.445 2.78 6.225 6.225 6.225S92 71.794 92 68.35V39.3a6.217 6.217 0 0 0-6.225-6.225zM65.15 8.838l5.415-5.415c.81-.81.81-2.117 0-2.926a2.066 2.066 0 0 0-2.925 0l-6.142 6.121c-3.32-1.64-7.035-2.594-10.998-2.594-3.984 0-7.719.955-11.06 2.615L33.278.476a2.066 2.066 0 0 0-2.926 0c-.81.81-.81 2.117 0 2.926l5.436 5.436C29.626 13.383 25.6 20.687 25.6 28.924h49.8c0-8.258-4.046-15.562-10.25-20.086zM42.2 20.624h-4.15v-4.15h4.15v4.15zm20.75 0H58.8v-4.15h4.15v4.15z" stroke="null"/></svg>