<svg xmlns="http://www.w3.org/2000/svg" width="100" height="100" viewBox="0 0 100 100"><g fill="#FFF"><path d="M74.395 52.805c-.113-11.32 9.231-16.75 9.648-17.023-5.251-7.679-13.432-8.732-16.344-8.852-6.955-.708-13.58 4.098-17.11 4.098-3.521 0-8.974-3.995-14.742-3.894-7.59.113-14.584 4.415-18.49 11.208-7.881 13.671-2.015 33.933 5.664 45.029 3.755 5.423 8.232 11.526 14.105 11.303 5.662-.224 7.797-3.661 14.643-3.661 6.843 0 8.766 3.661 14.754 3.546 6.088-.109 9.948-5.527 13.673-10.973 4.309-6.301 6.084-12.4 6.188-12.711-.131-.06-11.866-4.556-11.989-18.07zM63.142 19.587c3.115-3.782 5.226-9.038 4.653-14.269-4.497.183-9.938 2.989-13.165 6.767-2.892 3.353-5.421 8.69-4.744 13.827 5.015.389 10.131-2.551 13.256-6.325z"/></g></svg>