<svg width="100" height="100" xmlns="http://www.w3.org/2000/svg"><path stroke="null" fill="#FFF" d="M20.269 31.719l5.137 57.631 23.059 6.402 23.12-6.411 5.146-57.622H20.269zm46.913 53.954l-18.586 5.151v.03l-.048-.015-.05.015v-.03l-18.585-5.15L25.52 36.43h46.055l-4.393 49.243zm-10.005-20.8l-.818 9.165-7.875 2.126-.017.004-7.87-2.12-.504-5.643h-7.097l.99 11.1 14.481 4.018H48.485l.014-.005 14.466-4.013 1.941-21.7H39.145l-.644-7.237H65.548l.632-7.068H30.773l1.907 21.374h24.497z"/><text font-weight="bold" font-family="Helvetica, Arial, sans-serif" font-size="24" y="24" x="17.5" stroke-width="0" stroke="#000" fill="#fff">HTML</text></svg>