<svg xmlns="http://www.w3.org/2000/svg" width="100" height="100" viewBox="0 0 100 100"><path fill="#FFF" d="M75.507 61.336c-4.279-10.996-8.503-26.759-8.503-34.009 0-9.352-7.652-17.004-17.004-17.004-9.349 0-17.002 7.652-17.005 17.004 0 7.25-4.219 23.011-8.502 34.009l6.422 28.342h38.438l6.154-28.342zM55.668 21.659c1.566 0 2.834 1.266 2.834 2.834s-1.268 2.834-2.834 2.834c-1.564 0-2.834-1.266-2.834-2.834s1.27-2.834 2.834-2.834zm-11.337 0c1.568 0 2.834 1.266 2.834 2.834s-1.267 2.834-2.834 2.834a2.834 2.834 0 1 1 0-5.668zM50 47.166c-3.132 0-6.409-2.991-7.694-5.668h15.388c-1.285 2.677-4.561 5.668-7.694 5.668m0-17.005c5.48 0 11.336 8.502 11.336 8.502H38.663c.003.001 5.86-8.502 11.337-8.502m14.173 36.844c0 9.394-6.347 17.004-14.173 17.004s-14.17-7.61-14.17-17.004S42.174 50 50 50s14.173 7.611 14.173 17.005m-25.686-6.264c-.581-1.788-2.066-2.244-3.305-1.026l-2.61 2.573c-1.236 1.218-3.486 1.379-5.005.354l-4.427-2.994c-1.517-1.021-2.937-.377-3.151 1.444l-.629 5.306c-.219 1.818-1.814 3.415-3.54 3.554l-3.653.296c-1.734.139-2.355 1.562-1.385 3.172 0 0 12.445 20.616 23.809 15.416 11.365-5.2 3.896-28.095 3.896-28.095m49.347 9.507l-3.653-.296c-1.725-.139-3.321-1.735-3.537-3.554l-.634-5.306c-.214-1.821-1.631-2.466-3.147-1.444l-4.431 2.994c-1.52 1.024-3.77.863-5.001-.354l-2.613-2.573c-1.239-1.218-2.724-.762-3.305 1.026 0 0-7.47 22.895 3.897 28.095 11.366 5.2 23.808-15.416 23.808-15.416.973-1.61.348-3.033-1.384-3.172"/></svg>