<svg width="100" height="100" xmlns="http://www.w3.org/2000/svg"><g stroke="#939494"><path fill="#f3f3f3" d="M86.414 73.624c.39-1.509-.001-2.041-.656-2.245-3.444-2.125-5.741-4.512-8.175-8.043-1.96-4.1-3.007-5.378-2.866-11.156-.132-2.785.213-5.57 1.392-8.355 1.389-2.858 2.659-5.263 5.275-6.929l2.506-2.228c.606-.457.605-1.364.296-1.983-2.185-2.258-3.951-4.576-7.88-6.585-1.592-.922-3.994-1.635-7.16-1.77-2.234.001-4.402-.065-7.142.442-2.195.357-4.489 1.102-6.684 2.228l-3.162 1.508c-2.005.49-3.826.242-5.57-.313l-5.848-2.472c-2.036-.75-4.418-1.152-7.241-1.114-2.787-.009-5.549.108-8.077 1.392-2.004.966-3.827 2.114-5.57 3.342-2.065 1.927-4.025 3.958-5.57 6.405-1.19 1.537-2.032 4.016-2.965 6.324-.851 2.31-1.241 4.02-1.59 6.11-.609 4.042-.536 6.496-.393 9.568.3 5.259 1.053 7.172 1.606 10.304.666 2.66 1.584 4.816 2.507 6.962.937 2.595 2.458 4.898 3.899 7.241 1.268 2.434 3.249 5.106 5.291 7.798 1.765 1.95 2.583 3.427 5.947 5.832 2.256 1.409 2.59 1.683 3.8 2.245 1.116.277 2.269.517 3.9.278 1.06-.225 2.055-.384 3.62-1.114l3.342-1.392c1.246-.557 2.467-1.114 4.735-1.671 1.485-.195 2.97-.344 4.456-.279.933-.015 2.488.342 4.734 1.114 1.397.467 2.162.513 5.013 1.95 1.21.393 1.981 1.078 3.9.998a13.896 13.896 0 0 0 4.914-1.67c1.47-1.076 3.201-1.889 4.194-3.441 1.2-1.118 1.904-1.989 2.588-2.85l3.342-5.013a19.28 19.28 0 0 0 2.85-4.554c.976-2.126 1.725-4.48 2.442-6.864z"/><path fill="#f9f9f9" d="M47.833 22.987c.03 1.113.73.78 1.122.925 1.477.168 2.201-.23 3.203-.417 1.939-.556 2.686-.963 3.62-1.393 1.068-.635 2.136-1.093 3.203-2.089 1.007-.732 1.646-1.356 2.507-2.367 1.139-1.17 1.52-1.723 2.367-2.924.943-1.374 1.393-2.288 2.089-3.76.467-1.182 1.03-2.316 1.253-3.62.247-1.177.559-2.32.557-3.62.079-.636-.1-1.014-.278-1.393-.704-.415-1.066-.402-1.885-.343a8.634 8.634 0 0 0-3.546.76c-1.498.689-2.93 1.42-4.038 2.368-1.184.742-1.986 1.485-2.785 2.228-.97.886-1.803 1.91-2.646 2.924-.96 1.145-1.708 2.139-2.146 3.153-.592 1.13-1.003 2.261-1.475 3.392a18.245 18.245 0 0 0-1.122 3.809c-.137.834-.102 1.415 0 2.367z"/><path fill="url(#linearGradient4600)" d="M47.833 22.987c.03 1.113.73.78 1.122.925 1.477.168 2.201-.23 3.203-.417 1.939-.556 2.686-.963 3.62-1.393 1.068-.635 2.136-1.093 3.203-2.089 1.007-.732 1.646-1.356 2.507-2.367 1.139-1.17 1.52-1.723 2.367-2.924.943-1.374 1.393-2.288 2.089-3.76.467-1.182 1.03-2.316 1.253-3.62.247-1.177.559-2.32.557-3.62.079-.636-.1-1.014-.278-1.393-.704-.415-1.066-.402-1.885-.343a8.634 8.634 0 0 0-3.546.76c-1.498.689-2.93 1.42-4.038 2.368-1.184.742-1.986 1.485-2.785 2.228-.97.886-1.803 1.91-2.646 2.924-.96 1.145-1.708 2.139-2.146 3.153-.592 1.13-1.003 2.261-1.475 3.392a18.245 18.245 0 0 0-1.122 3.809c-.137.834-.102 1.415 0 2.367z"/><path fill="url(#linearGradient4596)" d="M86.414 73.624c.39-1.509-.001-2.041-.656-2.245-3.444-2.125-5.741-4.512-8.175-8.043-1.96-4.1-3.007-5.378-2.866-11.156-.132-2.785.213-5.57 1.392-8.355 1.389-2.858 2.659-5.263 5.275-6.929l2.506-2.228c.606-.457.605-1.364.296-1.983-2.185-2.258-3.951-4.576-7.88-6.585-1.592-.922-3.994-1.635-7.16-1.77-2.234.001-4.402-.065-7.142.442-2.195.357-4.489 1.102-6.684 2.228l-3.162 1.508c-2.005.49-3.826.242-5.57-.313l-5.848-2.472c-2.036-.75-4.418-1.152-7.241-1.114-2.787-.009-5.549.108-8.077 1.392-2.004.966-3.827 2.114-5.57 3.342-2.065 1.927-4.025 3.958-5.57 6.405-1.19 1.537-2.032 4.016-2.965 6.324-.851 2.31-1.241 4.02-1.59 6.11-.609 4.042-.536 6.496-.393 9.568.3 5.259 1.053 7.172 1.606 10.304.666 2.66 1.584 4.816 2.507 6.962.937 2.595 2.458 4.898 3.899 7.241 1.268 2.434 3.249 5.106 5.291 7.798 1.765 1.95 2.583 3.427 5.947 5.832 2.256 1.409 2.59 1.683 3.8 2.245 1.116.277 2.269.517 3.9.278 1.06-.225 2.055-.384 3.62-1.114l3.342-1.392c1.246-.557 2.467-1.114 4.735-1.671 1.485-.195 2.97-.344 4.456-.279.933-.015 2.488.342 4.734 1.114 1.397.467 2.162.513 5.013 1.95 1.21.393 1.981 1.078 3.9.998a13.896 13.896 0 0 0 4.914-1.67c1.47-1.076 3.201-1.889 4.194-3.441 1.2-1.118 1.904-1.989 2.588-2.85l3.342-5.013a19.28 19.28 0 0 0 2.85-4.554c.976-2.126 1.725-4.48 2.442-6.864z"/><path fill="url(#linearGradient4600)" d="M47.833 22.987c.03 1.113.73.78 1.122.925 1.477.168 2.201-.23 3.203-.417 1.939-.556 2.686-.963 3.62-1.393 1.068-.635 2.136-1.093 3.203-2.089 1.007-.732 1.646-1.356 2.507-2.367 1.139-1.17 1.52-1.723 2.367-2.924.943-1.374 1.393-2.288 2.089-3.76.467-1.182 1.03-2.316 1.253-3.62.247-1.177.559-2.32.557-3.62.079-.636-.1-1.014-.278-1.393-.704-.415-1.066-.402-1.885-.343a8.634 8.634 0 0 0-3.546.76c-1.498.689-2.93 1.42-4.038 2.368-1.184.742-1.986 1.485-2.785 2.228-.97.886-1.803 1.91-2.646 2.924-.96 1.145-1.708 2.139-2.146 3.153-.592 1.13-1.003 2.261-1.475 3.392a18.245 18.245 0 0 0-1.122 3.809c-.137.834-.102 1.415 0 2.367z"/></g><text opacity=".66" font-family="'Trebuchet MS', Gadget, sans-serif" font-size="15" y="65" x="12.5" stroke-width="0" stroke="#000" cursor="move">Mac OS X</text></svg>